<svg version="1.1" id="Layer_1" xmlns="http://www.w3.org/2000/svg" xmlns:xlink="http://www.w3.org/1999/xlink" x="0px" y="0px"
	 width="100%" viewBox="0 0 1108 1250" enable-background="new 0 0 1108 1250" xml:space="preserve">
<path fill="#F5F5F5" opacity="1.000000" stroke="none" 
	d="
M1.000000,1204.000000 
	C1.000000,803.045837 1.000000,402.091736 1.000000,1.068800 
	C370.245239,1.068800 739.490479,1.068800 1109.000000,1.068800 
	C1109.000000,401.365997 1109.000000,801.732056 1108.531372,1202.549072 
	C1098.463867,1202.993164 1088.864990,1202.986206 1079.199219,1202.516357 
	C1079.107056,1132.567627 1079.399170,1063.079590 1078.876709,993.597717 
	C1078.704346,970.675720 1077.125366,947.703125 1074.951904,924.871521 
	C1071.584351,889.494019 1063.407349,855.022339 1052.494019,821.229736 
	C1034.494629,765.495422 1008.238953,713.921936 973.722961,666.602051 
	C965.692932,655.593201 957.139587,644.966003 948.923218,634.069092 
	C949.019409,633.975037 949.208313,633.783447 949.542725,633.768616 
	C950.968628,632.598328 952.228882,631.560120 953.125793,630.269348 
	C963.387329,615.500305 973.445679,600.587891 983.853577,585.923401 
	C995.693054,569.241882 1003.110168,550.749939 1004.670105,530.502686 
	C1007.967468,487.704590 993.615112,451.947601 959.465759,425.110901 
	C923.674133,396.983582 872.353027,398.732635 838.499939,428.917236 
	C833.951416,432.972900 829.613586,437.264954 825.109436,441.512329 
	C824.794006,440.546417 824.330566,439.329346 823.997314,438.077667 
	C813.913513,400.202057 791.427307,372.357727 755.611633,356.386780 
	C719.355164,340.219330 683.909973,342.567352 650.798828,365.253815 
	C642.542664,370.910553 635.547607,378.407806 627.876953,385.143402 
	C627.489807,384.534332 626.800537,383.417847 626.080383,382.321655 
	C599.268677,341.512695 562.265076,319.751404 512.751953,325.250183 
	C475.375061,329.401154 448.721558,350.495209 432.196716,384.162323 
	C429.270447,390.124207 427.396729,396.602753 424.915985,403.162537 
	C393.708893,346.992950 333.039246,340.982086 296.793457,356.178314 
	C260.580811,371.360657 228.587402,410.085663 236.676895,465.829590 
	C235.164093,464.563171 233.902008,463.547699 232.684464,462.481323 
	C208.411392,441.221588 180.290848,432.800354 148.454910,438.039154 
	C78.599495,449.534363 43.402733,528.743591 81.559097,588.264587 
	C93.960945,607.610535 106.418442,626.921265 118.958389,646.177856 
	C120.519814,648.575623 120.691063,650.218628 118.952812,652.730164 
	C102.140770,677.021240 87.736412,702.681824 75.595497,729.622559 
	C47.876896,791.130371 33.075092,855.695007 32.383957,923.049622 
	C31.522264,1007.026245 32.141312,1091.018066 32.104500,1175.003296 
	C32.100266,1184.665894 31.990616,1194.328369 31.465593,1203.993896 
	C21.000895,1203.997925 11.000447,1203.998901 1.000000,1204.000000 
M229.308182,262.099091 
	C249.422119,263.125519 269.537720,264.120575 289.649628,265.185333 
	C325.548462,267.085846 361.443146,269.065216 397.343292,270.939880 
	C419.451843,272.094330 441.570465,273.054871 463.678925,274.210541 
	C499.579102,276.087189 535.472656,278.090759 571.372864,279.966125 
	C593.148987,281.103638 614.934937,282.053101 636.712097,283.171600 
	C674.277039,285.100891 711.838257,287.103455 749.401794,289.060028 
	C763.531494,289.796021 777.664551,290.466492 791.793945,291.207062 
	C828.691895,293.141022 865.589539,295.078583 902.485291,297.053314 
	C918.271851,297.898224 934.046143,299.010590 949.839844,299.669403 
	C958.740356,300.040680 967.669067,299.736328 977.573059,299.736328 
	C976.976379,290.183075 977.118652,279.986053 975.581238,270.048889 
	C969.607483,231.438507 952.012634,198.944809 922.577271,173.112762 
	C896.331543,150.080124 865.640991,136.890839 830.895325,134.224548 
	C803.023071,132.085709 775.047668,131.297363 747.120850,129.855423 
	C741.505737,129.565491 735.903198,129.031235 730.214294,128.603577 
	C729.518921,124.093040 728.924072,119.822395 728.195984,115.574593 
	C717.329590,52.176842 664.324768,6.495055 600.045288,4.949111 
	C590.070007,4.709204 580.104126,3.290591 570.144165,3.394696 
	C556.372559,3.538642 542.304932,3.008450 528.898621,5.567428 
	C476.570923,15.555667 436.517426,56.399078 426.125580,108.962196 
	C425.519501,112.027855 424.544556,113.270058 421.323395,112.983612 
	C415.525146,112.467995 409.696808,112.292854 403.881531,111.966423 
	C387.930511,111.071068 371.980896,110.149872 356.028564,109.278206 
	C336.243958,108.197128 316.384583,106.755524 296.863129,111.360741 
	C236.060623,125.704422 195.860245,162.669128 176.626862,222.127502 
	C172.804382,233.944397 170.725082,246.198914 170.715149,259.218689 
	C190.153290,260.177643 209.252670,261.119904 229.308182,262.099091 
z"/>
<path fill="#68A98D" opacity="1.000000" stroke="none" 
	d="
M1079.000000,1251.000000 
	C730.302429,1251.000000 381.604828,1251.000000 32.476364,1250.532104 
	C32.011253,1244.040161 31.977045,1238.015991 31.998245,1231.527588 
	C32.158096,1225.723999 32.262539,1220.384766 32.806190,1215.033447 
	C381.790833,1215.019531 730.336304,1215.017944 1078.937744,1215.473022 
	C1079.076538,1219.610352 1079.159180,1223.291016 1079.160889,1227.436646 
	C1079.053345,1235.600952 1079.026611,1243.300537 1079.000000,1251.000000 
z"/>
<path fill="#EBEBEB" opacity="1.000000" stroke="none" 
	d="
M32.366982,1215.045654 
	C32.262539,1220.384766 32.158096,1225.723999 31.534426,1231.529907 
	C21.010134,1231.997803 11.005067,1231.998901 1.000000,1232.000000 
	C1.000000,1222.979126 1.000000,1213.958130 1.000000,1204.468628 
	C11.000447,1203.998901 21.000895,1203.997925 31.534567,1204.449463 
	C32.167519,1208.283325 32.267250,1211.664429 32.366982,1215.045654 
z"/>
<path fill="#ECECEC" opacity="1.000000" stroke="none" 
	d="
M1079.241821,1226.971802 
	C1079.159180,1223.291016 1079.076538,1219.610352 1079.007568,1215.014893 
	C1079.102905,1210.393188 1079.184570,1206.686279 1079.266113,1202.979248 
	C1088.864990,1202.986206 1098.463867,1202.993164 1108.531372,1203.000000 
	C1109.000000,1210.687622 1109.000000,1218.375122 1108.531372,1226.531372 
	C1098.455811,1226.990601 1088.848755,1226.981201 1079.241821,1226.971802 
z"/>
<path fill="#E1E4E3" opacity="1.000000" stroke="none" 
	d="
M1079.160889,1227.436646 
	C1088.848755,1226.981201 1098.455811,1226.990601 1108.531372,1227.000000 
	C1109.000000,1234.934570 1109.000000,1242.869263 1109.000000,1251.000000 
	C1099.313354,1251.000000 1089.625244,1251.000000 1079.468628,1251.000000 
	C1079.026611,1243.300537 1079.053345,1235.600952 1079.160889,1227.436646 
z"/>
<path fill="#E0E0E0" opacity="1.000000" stroke="none" 
	d="
M1.000000,1232.469360 
	C11.005067,1231.998901 21.010134,1231.997803 31.479019,1231.994385 
	C31.977045,1238.015991 32.011253,1244.040161 32.022728,1250.532104 
	C21.758251,1251.000000 11.516502,1251.000000 1.000000,1251.000000 
	C1.000000,1244.982300 1.000000,1238.960571 1.000000,1232.469360 
z"/>
<path fill="#70B698" opacity="1.000000" stroke="none" 
	d="
M1079.199219,1202.516235 
	C1079.184570,1206.686279 1079.102905,1210.393188 1078.951538,1214.558350 
	C730.336304,1215.017944 381.790833,1215.019531 32.806190,1215.033447 
	C32.267250,1211.664429 32.167519,1208.283325 31.998817,1204.446533 
	C31.990616,1194.328369 32.100266,1184.665894 32.104500,1175.003296 
	C32.141312,1091.018066 31.522264,1007.026245 32.383957,923.049622 
	C33.075092,855.695007 47.876896,791.130371 75.595497,729.622559 
	C87.736412,702.681824 102.140770,677.021240 118.952812,652.730164 
	C120.691063,650.218628 120.519814,648.575623 118.958389,646.177856 
	C106.418442,626.921265 93.960945,607.610535 81.559097,588.264587 
	C43.402733,528.743591 78.599495,449.534363 148.454910,438.039154 
	C180.290848,432.800354 208.411392,441.221588 232.684464,462.481323 
	C233.902008,463.547699 235.164093,464.563171 236.676895,465.829590 
	C228.587402,410.085663 260.580811,371.360657 296.793457,356.178314 
	C333.039246,340.982086 393.708893,346.992950 424.915985,403.162537 
	C427.396729,396.602753 429.270447,390.124207 432.196716,384.162323 
	C448.721558,350.495209 475.375061,329.401154 512.751953,325.250183 
	C562.265076,319.751404 599.268677,341.512695 626.080383,382.321655 
	C626.800537,383.417847 627.489807,384.534332 627.876953,385.143402 
	C635.547607,378.407806 642.542664,370.910553 650.798828,365.253815 
	C683.909973,342.567352 719.355164,340.219330 755.611633,356.386780 
	C791.427307,372.357727 813.913513,400.202057 823.997314,438.077667 
	C824.330566,439.329346 824.794006,440.546417 825.109436,441.512329 
	C829.613586,437.264954 833.951416,432.972900 838.499939,428.917236 
	C872.353027,398.732635 923.674133,396.983582 959.465759,425.110901 
	C993.615112,451.947601 1007.967468,487.704590 1004.670105,530.502686 
	C1003.110168,550.749939 995.693054,569.241882 983.853577,585.923401 
	C973.445679,600.587891 963.387329,615.500305 953.125793,630.269348 
	C952.228882,631.560120 950.968628,632.598328 949.425903,633.560669 
	C948.717163,633.415222 948.459534,633.462891 948.201965,633.510498 
	C948.410339,633.728027 948.618713,633.945618 948.827026,634.163208 
	C957.139587,644.966003 965.692932,655.593201 973.722961,666.602051 
	C1008.238953,713.921936 1034.494629,765.495422 1052.494019,821.229736 
	C1063.407349,855.022339 1071.584351,889.494019 1074.951904,924.871521 
	C1077.125366,947.703125 1078.704346,970.675720 1078.876709,993.597717 
	C1079.399170,1063.079590 1079.107056,1132.567627 1079.199219,1202.516235 
M473.807983,1025.172241 
	C481.753052,1025.746216 489.692261,1026.423706 497.644348,1026.873535 
	C516.389160,1027.934204 535.140137,1028.887695 553.888672,1029.882080 
	C579.108643,1031.219849 604.325867,1032.610840 629.549683,1033.872192 
	C646.152954,1034.702393 662.766296,1035.328003 679.373657,1036.077637 
	C686.346191,1036.392212 693.317261,1036.749023 700.284912,1037.156738 
	C721.509338,1038.399048 742.730957,1039.688477 763.956421,1040.912598 
	C765.520691,1041.002930 767.106506,1040.719116 768.540222,1040.619141 
	C768.982910,1034.520752 769.349548,1029.056763 769.787170,1023.598511 
	C770.041138,1020.431274 768.042236,1020.181946 765.651733,1020.081848 
	C759.343750,1019.817749 753.040344,1019.444092 746.735474,1019.107300 
	C728.151917,1018.114502 709.568726,1017.114380 690.984985,1016.124329 
	C665.765137,1014.780762 640.544922,1013.443665 615.324829,1012.104431 
	C596.575806,1011.108826 577.826965,1010.111572 559.077759,1009.119995 
	C539.996765,1008.110779 520.915344,1007.110657 501.834381,1006.100708 
	C483.084106,1005.108276 464.334320,1004.106750 445.584137,1003.112610 
	C426.669464,1002.109741 407.757294,1001.055847 388.839081,1000.124817 
	C366.094482,999.005432 343.341888,998.047119 320.598541,996.904175 
	C312.310913,996.487671 304.046783,995.601074 295.758881,995.195068 
	C290.357361,994.930359 284.932343,995.145081 278.929932,995.145081 
	C278.929932,1001.992249 278.929932,1008.214417 278.929932,1014.923157 
	C285.875397,1015.327576 292.975769,1015.741028 300.347473,1016.739746 
	C307.857269,1023.280640 315.324371,1029.871338 322.884888,1036.353027 
	C344.190216,1054.618042 365.551025,1072.818481 386.841492,1091.100830 
	C389.607117,1093.475586 391.686035,1093.376465 394.582489,1090.973389 
	C416.182861,1073.052246 437.970825,1055.357422 459.604675,1037.476318 
	C464.261017,1033.627808 468.530090,1029.310791 473.807983,1025.172241 
M354.486389,729.072021 
	C347.411499,731.397705 340.458923,734.245972 333.235443,735.936951 
	C319.484436,739.155945 310.880463,747.394592 302.876526,759.088928 
	C293.141357,773.312744 289.396179,787.439758 289.498138,804.457825 
	C289.587402,819.356018 293.565887,831.288635 301.506470,843.691345 
	C309.720825,856.521790 318.695862,866.488770 334.042023,869.422119 
	C334.201324,869.452576 334.341339,869.574951 334.500275,869.617493 
	C343.362823,871.988770 351.594666,878.291382 362.405365,874.003967 
	C373.917267,876.847595 385.490662,877.184631 396.991608,874.217224 
	C442.677124,862.429688 466.362579,810.022156 445.515167,767.031738 
	C428.400330,731.738525 389.978210,715.565796 354.486389,729.072021 
M675.700806,877.602661 
	C708.293030,887.326599 739.647278,872.664185 756.112122,847.306824 
	C774.375610,819.179504 772.649780,782.521057 751.912292,756.340881 
	C731.807312,730.958984 700.768738,722.632629 668.187866,734.102356 
	C666.263794,734.075989 664.157166,733.519531 662.445129,734.109009 
	C650.980957,738.056458 639.583313,742.200806 628.215332,746.419434 
	C626.784058,746.950562 625.278320,748.039246 624.441040,749.293030 
	C617.517273,759.660461 610.651978,770.070312 604.004700,780.615967 
	C602.760559,782.589844 602.030334,785.217957 601.986023,787.561584 
	C601.778564,798.541443 602.150635,809.535645 601.797363,820.508118 
	C601.585510,827.087830 602.670166,832.834412 606.964966,838.101196 
	C610.415588,842.332764 613.614136,846.930298 616.037476,851.806335 
	C621.280151,862.354980 628.689941,869.847046 640.701660,871.912964 
	C641.180847,871.995239 641.608398,872.346802 642.086609,872.469604 
	C652.944641,875.256104 662.996033,883.818848 675.700806,877.602661 
z"/>
<path fill="#849F95" opacity="1.000000" stroke="none" 
	d="
M228.830109,262.080627 
	C209.252670,261.119904 190.153290,260.177643 170.715149,259.218689 
	C170.725082,246.198914 172.804382,233.944397 176.626862,222.127502 
	C195.860245,162.669128 236.060623,125.704422 296.863129,111.360741 
	C316.384583,106.755524 336.243958,108.197128 356.028564,109.278206 
	C371.980896,110.149872 387.930511,111.071068 403.881531,111.966423 
	C409.696808,112.292854 415.525146,112.467995 421.323395,112.983612 
	C424.544556,113.270058 425.519501,112.027855 426.125580,108.962196 
	C436.517426,56.399078 476.570923,15.555667 528.898621,5.567428 
	C542.304932,3.008450 556.372559,3.538642 570.144165,3.394696 
	C580.104126,3.290591 590.070007,4.709204 600.045288,4.949111 
	C664.324768,6.495055 717.329590,52.176842 728.195984,115.574593 
	C728.924072,119.822395 729.518921,124.093040 730.214294,128.603577 
	C735.903198,129.031235 741.505737,129.565491 747.120850,129.855423 
	C775.047668,131.297363 803.023071,132.085709 830.895325,134.224548 
	C865.640991,136.890839 896.331543,150.080124 922.577271,173.112762 
	C952.012634,198.944809 969.607483,231.438507 975.581238,270.048889 
	C977.118652,279.986053 976.976379,290.183075 977.573059,299.736328 
	C967.669067,299.736328 958.740356,300.040680 949.839844,299.669403 
	C934.046143,299.010590 918.271851,297.898224 902.485291,297.053314 
	C865.589539,295.078583 828.691895,293.141022 791.793945,291.207062 
	C777.664551,290.466492 763.531494,289.796021 749.401794,289.060028 
	C711.838257,287.103455 674.277039,285.100891 636.712097,283.171600 
	C614.934937,282.053101 593.148987,281.103638 571.372864,279.966125 
	C535.472656,278.090759 499.579102,276.087189 463.678925,274.210541 
	C441.570465,273.054871 419.451843,272.094330 397.343292,270.939880 
	C361.443146,269.065216 325.548462,267.085846 289.649628,265.185333 
	C269.537720,264.120575 249.422119,263.125519 228.830109,262.080627 
z"/>
<path fill="#5C5C5C" opacity="1.000000" stroke="none" 
	d="
M675.184204,877.110962 
	C662.996033,883.818848 652.944641,875.256104 642.086609,872.469604 
	C641.608398,872.346802 641.180847,871.995239 640.701660,871.912964 
	C628.689941,869.847046 621.280151,862.354980 616.037476,851.806335 
	C613.614136,846.930298 610.415588,842.332764 606.964966,838.101196 
	C602.670166,832.834412 601.585510,827.087830 601.797363,820.508118 
	C602.150635,809.535645 601.778564,798.541443 601.986023,787.561584 
	C602.030334,785.217957 602.760559,782.589844 604.004700,780.615967 
	C610.651978,770.070312 617.517273,759.660461 624.441040,749.293030 
	C625.278320,748.039246 626.784058,746.950562 628.215332,746.419434 
	C639.583313,742.200806 650.980957,738.056458 662.445129,734.109009 
	C664.157166,733.519531 666.263794,734.075989 668.744873,734.398621 
	C679.764832,738.500549 690.260681,742.219910 700.660034,746.192078 
	C702.515747,746.900940 704.434692,748.345825 705.535706,749.981750 
	C712.505981,760.338257 719.331238,770.795471 726.002686,781.346985 
	C727.159973,783.177368 727.882141,785.607727 727.911682,787.773071 
	C728.086487,800.601990 728.073669,813.435364 727.919373,826.264832 
	C727.895203,828.281311 727.250793,830.553650 726.173523,832.251099 
	C719.574829,842.648560 712.879578,852.990234 705.937805,863.160156 
	C704.560852,865.177368 702.194092,866.912354 699.903992,867.841675 
	C691.752625,871.149780 683.437378,874.053833 675.184204,877.110962 
z"/>
<path fill="#5C5C5C" opacity="1.000000" stroke="none" 
	d="
M361.533478,873.960693 
	C351.594666,878.291382 343.362823,871.988770 334.500275,869.617493 
	C334.341339,869.574951 334.201324,869.452576 334.042023,869.422119 
	C318.695862,866.488770 309.720825,856.521790 301.506470,843.691345 
	C293.565887,831.288635 289.587402,819.356018 289.498138,804.457825 
	C289.396179,787.439758 293.141357,773.312744 302.876526,759.088928 
	C310.880463,747.394592 319.484436,739.155945 333.235443,735.936951 
	C340.458923,734.245972 347.411499,731.397705 355.071350,729.357544 
	C366.874664,733.724854 378.118469,737.739258 389.284424,741.959656 
	C391.002167,742.608887 392.803619,743.908691 393.815521,745.412842 
	C400.860840,755.885071 407.779083,766.445312 414.545868,777.099487 
	C415.620331,778.791199 416.184784,781.092163 416.207611,783.120178 
	C416.353485,796.088196 416.372101,809.059814 416.193481,822.027039 
	C416.163696,824.189514 415.397217,826.609070 414.235443,828.444031 
	C408.017456,838.265381 401.771454,848.084106 395.066467,857.572449 
	C393.133636,860.307617 389.931183,862.587585 386.818726,863.961487 
	C378.533417,867.618774 369.980164,870.669006 361.533478,873.960693 
z"/>
<path fill="#5C5D5D" opacity="1.000000" stroke="none" 
	d="
M300.076111,1016.154480 
	C292.975769,1015.741028 285.875397,1015.327576 278.929932,1014.923157 
	C278.929932,1008.214417 278.929932,1001.992249 278.929932,995.145081 
	C284.932343,995.145081 290.357361,994.930359 295.758881,995.195068 
	C304.046783,995.601074 312.310913,996.487671 320.598541,996.904175 
	C343.341888,998.047119 366.094482,999.005432 388.839081,1000.124817 
	C407.757294,1001.055847 426.669464,1002.109741 445.584137,1003.112610 
	C464.334320,1004.106750 483.084106,1005.108276 501.834381,1006.100708 
	C520.915344,1007.110657 539.996765,1008.110779 559.077759,1009.119995 
	C577.826965,1010.111572 596.575806,1011.108826 615.324829,1012.104431 
	C640.544922,1013.443665 665.765137,1014.780762 690.984985,1016.124329 
	C709.568726,1017.114380 728.151917,1018.114502 746.735474,1019.107300 
	C753.040344,1019.444092 759.343750,1019.817749 765.651733,1020.081848 
	C768.042236,1020.181946 770.041138,1020.431274 769.787170,1023.598511 
	C769.349548,1029.056763 768.982910,1034.520752 768.540222,1040.619141 
	C767.106506,1040.719116 765.520691,1041.002930 763.956421,1040.912598 
	C742.730957,1039.688477 721.509338,1038.399048 700.284912,1037.156738 
	C693.317261,1036.749023 686.346191,1036.392212 679.373657,1036.077637 
	C662.766296,1035.328003 646.152954,1034.702393 629.549683,1033.872192 
	C604.325867,1032.610840 579.108643,1031.219849 553.888672,1029.882080 
	C535.140137,1028.887695 516.389160,1027.934204 497.644348,1026.873535 
	C489.692261,1026.423706 481.753052,1025.746216 472.922729,1025.162842 
	C455.583466,1024.359009 439.127899,1023.595642 422.675995,1022.760437 
	C409.548828,1022.093994 396.426453,1021.333313 383.301300,1020.626160 
	C355.559784,1019.131592 327.817871,1017.644592 300.076111,1016.154480 
z"/>
<path fill="#D8D9D8" opacity="1.000000" stroke="none" 
	d="
M300.211792,1016.447144 
	C327.817871,1017.644592 355.559784,1019.131592 383.301300,1020.626160 
	C396.426453,1021.333313 409.548828,1022.093994 422.675995,1022.760437 
	C439.127899,1023.595642 455.583466,1024.359009 472.507507,1025.181519 
	C468.530090,1029.310791 464.261017,1033.627808 459.604675,1037.476318 
	C437.970825,1055.357422 416.182861,1073.052246 394.582489,1090.973389 
	C391.686035,1093.376465 389.607117,1093.475586 386.841492,1091.100830 
	C365.551025,1072.818481 344.190216,1054.618042 322.884888,1036.353027 
	C315.324371,1029.871338 307.857269,1023.280640 300.211792,1016.447144 
z"/>
<path fill="#FEFEFE" opacity="1.000000" stroke="none" 
	d="
M675.442505,877.356812 
	C683.437378,874.053833 691.752625,871.149780 699.903992,867.841675 
	C702.194092,866.912354 704.560852,865.177368 705.937805,863.160156 
	C712.879578,852.990234 719.574829,842.648560 726.173523,832.251099 
	C727.250793,830.553650 727.895203,828.281311 727.919373,826.264832 
	C728.073669,813.435364 728.086487,800.601990 727.911682,787.773071 
	C727.882141,785.607727 727.159973,783.177368 726.002686,781.346985 
	C719.331238,770.795471 712.505981,760.338257 705.535706,749.981750 
	C704.434692,748.345825 702.515747,746.900940 700.660034,746.192078 
	C690.260681,742.219910 679.764832,738.500549 669.119629,734.388550 
	C700.768738,722.632629 731.807312,730.958984 751.912292,756.340881 
	C772.649780,782.521057 774.375610,819.179504 756.112122,847.306824 
	C739.647278,872.664185 708.293030,887.326599 675.442505,877.356812 
z"/>
<path fill="#FDFEFD" opacity="1.000000" stroke="none" 
	d="
M361.969421,873.982300 
	C369.980164,870.669006 378.533417,867.618774 386.818726,863.961487 
	C389.931183,862.587585 393.133636,860.307617 395.066467,857.572449 
	C401.771454,848.084106 408.017456,838.265381 414.235443,828.444031 
	C415.397217,826.609070 416.163696,824.189514 416.193481,822.027039 
	C416.372101,809.059814 416.353485,796.088196 416.207611,783.120178 
	C416.184784,781.092163 415.620331,778.791199 414.545868,777.099487 
	C407.779083,766.445312 400.860840,755.885071 393.815521,745.412842 
	C392.803619,743.908691 391.002167,742.608887 389.284424,741.959656 
	C378.118469,737.739258 366.874664,733.724854 355.492371,729.356567 
	C389.978210,715.565796 428.400330,731.738525 445.515167,767.031738 
	C466.362579,810.022156 442.677124,862.429688 396.991608,874.217224 
	C385.490662,877.184631 373.917267,876.847595 361.969421,873.982300 
z"/>
<path fill="#F5F5F5" opacity="1.000000" stroke="none" 
	d="
M948.923218,634.069092 
	C948.618713,633.945618 948.410339,633.728027 948.201965,633.510498 
	C948.459534,633.462891 948.717163,633.415222 949.091553,633.575500 
	C949.208313,633.783447 949.019409,633.975037 948.923218,634.069092 
z"/>
</svg>